<svg id="Layer_1" data-name="Layer 1" xmlns="http://www.w3.org/2000/svg" viewBox="0 0 94.03 62.87"><defs><style>.cls-1{fill:#50c8ec;}.cls-2{font-size:23.8px;}.cls-2,.cls-5{fill:#6859a6;font-family:NotoSans-ExtraCondensedBlackItalic, Noto Sans;font-weight:800;font-style:italic;}.cls-3{letter-spacing:0em;}.cls-4{letter-spacing:0em;}.cls-5{font-size:26.32px;}</style></defs><title>culture-shocks-logo</title><path class="cls-1" d="M26.63,17.88,15.49,45.61a.52.52,0,0,0,.54.68h5.64a.52.52,0,0,1,.47.82L5.5,74.76c-.38.47-1.19.12-1-.43L11.7,51.54a.53.53,0,0,0-.55-.66L5,51.13a.51.51,0,0,1-.42-.87L25.66,17.37C26.08,17,26.83,17.35,26.63,17.88Z" transform="translate(-4.46 -17.2)"/><text class="cls-2" transform="translate(19.34 27.93) scale(1.04 1)">Cultu<tspan class="cls-3" x="48.66" y="0">r</tspan><tspan class="cls-4" x="56.92" y="0">e </tspan></text><text class="cls-5" transform="translate(13.03 52.63) scale(1.04 1)">Shocks</text></svg>